<svg width="17" height="12" viewBox="0 0 17 12" fill="none" xmlns="http://www.w3.org/2000/svg">
<path d="M1.59961 4.09888H3.29443V3.24194C3.29443 2.61987 3.63721 2.28345 4.26562 2.28345H6.60156C7.23633 2.28345 7.5791 2.61987 7.5791 3.24194V4.09888H9.00098V3.24194C9.00098 2.61987 9.34375 2.28345 10.0039 2.28345H12.2383C12.8984 2.28345 13.2412 2.61987 13.2412 3.24194V4.09888H14.936V2.2771C14.936 1.052 14.2759 0.410889 13.0698 0.410889H3.46582C2.25977 0.410889 1.59961 1.052 1.59961 2.2771V4.09888ZM0 11.0178C0 11.3669 0.228516 11.5891 0.571289 11.5891H0.977539C1.32031 11.5891 1.54883 11.3669 1.54883 11.0178V10.1165C1.61865 10.1418 1.85352 10.1545 2.01855 10.1545H14.5044C14.6758 10.1545 14.9043 10.1418 14.9805 10.1165V11.0178C14.9805 11.3669 15.209 11.5891 15.5518 11.5891H15.9517C16.2944 11.5891 16.5229 11.3669 16.5229 11.0178V7.11401C16.5229 5.81909 15.812 5.12085 14.5107 5.12085H2.01855C0.710938 5.12085 0 5.81909 0 7.11401V11.0178Z" fill="black"/>
</svg>
